<?xml version="1.0" encoding="utf-8" ?>
<svg xmlns="http://www.w3.org/2000/svg" xmlns:xlink="http://www.w3.org/1999/xlink" width="20" height="20">
	<path fill="#EFB91F" transform="translate(0.189449 0)" d="M9.7500038 0C7.8216362 0 5.9365735 0.57182753 4.3331943 1.6431713C2.729815 2.714515 1.4801333 4.2372565 0.74217892 6.018836C0.0042245192 7.8004155 -0.188858 9.7608156 0.1873479 11.652131C0.56355381 13.543446 1.4921511 15.280729 2.8557131 16.644291C4.219275 18.007853 5.9565592 18.936449 7.8478737 19.312656C9.7391882 19.688862 11.699588 19.495779 13.481167 18.757824C15.262747 18.019871 16.785488 16.770187 17.856833 15.166809C18.928177 13.56343 19.5 11.678368 19.5 9.75C19.497274 7.1649771 18.469168 4.6866121 16.641279 2.8587236C14.813392 1.0308355 12.335027 0.0027298301 9.7500038 0ZM14.030629 8.0306253L8.7806292 13.280625C8.7109747 13.350357 8.6282578 13.405677 8.5372095 13.44342C8.4461603 13.481163 8.3485661 13.500589 8.2500038 13.500589C8.1514425 13.500589 8.0538473 13.481163 7.9627991 13.44342C7.8717504 13.405677 7.7890334 13.350357 7.7193789 13.280625L5.4693789 11.030625C5.3286481 10.889894 5.2495871 10.699022 5.2495871 10.5C5.2495871 10.300977 5.3286481 10.110105 5.4693789 9.9693747C5.6101093 9.8286438 5.800981 9.7495832 6 9.7495832C6.1990271 9.7495832 6.3898988 9.8286438 6.5306296 9.9693747L8.2500038 11.689688L12.969378 6.9693747C13.039062 6.8996921 13.121787 6.8444166 13.212831 6.8067045C13.303877 6.7689924 13.401458 6.7495828 13.5 6.7495828C13.59855 6.7495828 13.696132 6.7689924 13.787176 6.8067045C13.878222 6.8444166 13.960947 6.8996921 14.030629 6.9693747C14.100312 7.0390573 14.155586 7.1217828 14.193298 7.2128277C14.23101 7.3038721 14.250422 7.4014535 14.250422 7.5C14.250422 7.598546 14.23101 7.6961274 14.193298 7.7871723C14.155586 7.8782167 14.100312 7.9609423 14.030629 8.0306253Z"/>
</svg>
