<?xml version="1.0" encoding="utf-8" ?>
<svg xmlns="http://www.w3.org/2000/svg" xmlns:xlink="http://www.w3.org/1999/xlink" width="36" height="35">
	<path fill="white" transform="translate(0 -0.00019455)" d="M35.0033 17.501686C35.0033 7.8407559 27.162561 0 17.50165 0C7.8407393 0 0 7.8407559 0 17.501686C0 25.972504 6.0205674 33.025681 14.00132 34.653339L14.00132 22.752193L10.50099 22.752193L10.50099 17.501686L14.00132 17.501686L14.00132 13.126266C14.00132 9.7484398 16.749079 7.0006747 20.126898 7.0006747L24.50231 7.0006747L24.50231 12.251181L21.00198 12.251181C20.039389 12.251181 19.251816 13.038756 19.251816 14.001349L19.251816 17.501686L24.50231 17.501686L24.50231 22.752193L19.251816 22.752193L19.251816 34.915867C28.090149 34.040783 35.0033 26.585062 35.0033 17.501686Z"/>
</svg>
