<?xml version="1.0" encoding="utf-8" ?>
<svg xmlns="http://www.w3.org/2000/svg" xmlns:xlink="http://www.w3.org/1999/xlink" width="36" height="37">
	<path fill="white" transform="translate(0.00390625 0.00299072)" d="M19.30183 0.0021533996C20.578983 -0.0027474624 21.856144 0.010088478 23.13294 0.040657245L23.472473 0.052908372C23.86451 0.066909723 24.251295 0.08441136 24.71859 0.10541338C26.580765 0.19292182 27.851387 0.48695049 28.966242 0.91924214C30.121349 1.363785 31.094444 1.9658426 32.067535 2.9389365C32.957272 3.8133316 33.645878 4.8710294 34.085476 6.0384851C34.517765 7.1533427 34.811794 8.4257145 34.899303 10.287894C34.920303 10.753439 34.937805 11.141977 34.951805 11.534016L34.962307 11.873549C34.993404 13.149757 35.006824 14.426337 35.002563 15.702918L35.004311 17.008545L35.004311 19.301264C35.008625 20.578428 34.995205 21.855593 34.964058 23.132383L34.95356 23.471916C34.939556 23.863955 34.922054 24.25074 34.901051 24.718035C34.813545 26.580215 34.516018 27.850838 34.085476 28.965694C33.647316 30.13439 32.958538 31.192955 32.067535 32.066998C31.192387 32.956642 30.134142 33.645214 28.966242 34.084942C27.851387 34.517231 26.580765 34.81126 24.71859 34.898769C24.251295 34.919773 23.86451 34.937271 23.472473 34.951271L23.13294 34.961773C21.856152 34.992886 20.578991 35.006306 19.30183 35.002029L17.996206 35.003777L15.70524 35.003777C14.428078 35.008091 13.150919 34.994671 11.87413 34.963524L11.534597 34.953026C11.119125 34.937965 10.703746 34.92046 10.28848 34.900517C8.4263039 34.813011 7.155684 34.515484 6.0390787 34.084942C4.8711658 33.646252 3.8132851 32.957523 2.9395368 32.066998C2.0487821 31.19241 1.3595303 30.134039 0.91984659 28.965694C0.48755586 27.850838 0.19352789 26.580215 0.10601965 24.718035C0.086527899 24.302748 0.069026105 23.887371 0.053514749 23.471916L0.044764139 23.132383C0.01249737 21.855608 -0.0020889041 20.578445 0.0010098465 19.301264L0.0010098465 15.702918C-0.0038748048 14.426345 0.0089611057 13.149765 0.039513607 11.873549L0.051764708 11.534016C0.065766029 11.141977 0.083267629 10.753439 0.10426961 10.287894C0.19177786 8.4239645 0.48580539 7.1550927 0.91809613 6.0384851C1.3580399 4.8704581 2.04864 3.8130496 2.941287 2.9406869C3.8144348 2.049417 4.8716512 1.3595366 6.0390787 0.91924214C7.155684 0.48695049 8.4245539 0.19292182 10.28848 0.10541338L11.534597 0.052908372L11.87413 0.044157743C13.150321 0.011907057 14.426896 -0.0026792467 15.70349 0.00040335776L19.30183 0.0021533996ZM17.502661 8.7529964C16.343187 8.736598 15.192017 8.9508076 14.11605 9.3831758C13.040083 9.8155451 12.060779 10.457449 11.235048 11.271585C10.409318 12.085722 9.7536297 13.055853 9.3060894 14.1256C8.8585491 15.195347 8.6280832 16.343374 8.6280832 17.502966C8.6280832 18.662558 8.8585491 19.810587 9.3060894 20.880333C9.7536297 21.950079 10.409318 22.92021 11.235048 23.734346C12.060779 24.548483 13.040083 25.190388 14.11605 25.622757C15.192017 26.055124 16.343187 26.269333 17.502661 26.252935C19.823523 26.252935 22.04933 25.330973 23.690428 23.689873C25.331526 22.048771 26.253485 19.82296 26.253485 17.50209C26.253485 15.181223 25.331526 12.955411 23.690428 11.314309C22.04933 9.6732082 19.823523 8.7529964 17.502661 8.7529964ZM17.502661 12.253335C18.200113 12.240484 18.893135 12.36674 19.541245 12.624733C20.189354 12.882725 20.779556 13.267281 21.277378 13.755933C21.7752 14.244585 22.170656 14.827539 22.440651 15.470742C22.710648 16.113945 22.849766 16.804502 22.849882 17.502075C22.849998 18.199648 22.711109 18.890251 22.44133 19.533543C22.171549 20.176836 21.776287 20.759924 21.278627 21.248741C20.78097 21.73756 20.190895 22.122311 19.542871 22.380518C18.894848 22.638727 18.201868 22.765217 17.504412 22.752598C16.111893 22.752598 14.776408 22.199421 13.79175 21.21476C12.807091 20.230099 12.253916 18.894611 12.253916 17.50209C12.253916 16.10957 12.807091 14.774082 13.79175 13.789421C14.776408 12.80476 16.111893 12.251584 17.504412 12.251584L17.502661 12.253335ZM26.691027 6.1277442C26.126411 6.1503425 25.592438 6.390533 25.200945 6.7980084C24.809454 7.2054839 24.590811 7.7486353 24.590811 8.3137045C24.590811 8.8787737 24.809454 9.4219255 25.200945 9.829401C25.592438 10.236876 26.126411 10.477067 26.691027 10.499665C27.271242 10.499665 27.827698 10.269176 28.237972 9.8589001C28.648247 9.4486246 28.878735 8.8921719 28.878735 8.3119545C28.878735 7.7317376 28.648247 7.1752849 28.237972 6.7650099C27.827698 6.3547344 27.271242 6.1242442 26.691027 6.1242442L26.691027 6.1277442Z"/>
</svg>
