<?xml version="1.0" encoding="utf-8" ?>
<svg xmlns="http://www.w3.org/2000/svg" xmlns:xlink="http://www.w3.org/1999/xlink" width="36" height="36">
	<path fill="white" transform="translate(-3.8147e-06 -0.00019455)" d="M0 2.5071166C0 1.1222956 1.1507334 0 2.5705547 0L32.432743 0C33.852566 0 35.0033 1.1222956 35.0033 2.5071166L35.0033 32.496254C35.0033 33.881077 33.852566 35.003372 32.432743 35.003372L2.5705547 35.003372C1.1507334 35.003372 0 33.881077 0 32.496254L0 2.5071166ZM10.813831 29.302198L10.813831 13.495988L5.5611496 13.495988L5.5611496 29.302198L10.813831 29.302198ZM8.1885843 11.336718C10.019694 11.336718 11.159489 10.124725 11.159489 8.6064539C11.126674 7.0553675 10.021882 5.8761911 8.223588 5.8761911C6.4252934 5.8761911 5.250495 7.0575547 5.250495 8.6064539C5.250495 10.124725 6.3902898 11.336718 8.1535807 11.336718L8.1885843 11.336718ZM18.925846 29.302198L18.925846 20.474785C18.925846 20.002239 18.96085 19.529694 19.100863 19.192785C19.479336 18.249882 20.343481 17.271976 21.796118 17.271976C23.697235 17.271976 24.456367 18.720242 24.456367 20.846697L24.456367 29.302198L29.709051 29.302198L29.709051 20.236324C29.709051 15.379606 27.118807 13.121889 23.662231 13.121889C20.875093 13.121889 18.914129 15.750028 18.925846 15.731828L18.925846 15.786521L18.890844 15.786521C18.89859 15.774346 18.910257 15.010836 18.925846 13.495988L13.675351 13.495988C13.719106 14.484834 13.719106 19.753571 13.675351 29.302198L18.925846 29.302198Z"/>
</svg>
