<?xml version="1.0" encoding="utf-8" ?>
<svg xmlns="http://www.w3.org/2000/svg" xmlns:xlink="http://www.w3.org/1999/xlink" width="24" height="25">
	<path fill="#00378F" transform="translate(6 2.24953)" d="M16.5 9.7504673C16.500618 10.005117 16.435326 10.255594 16.310472 10.477537C16.185619 10.699481 16.005453 10.885336 15.787499 11.017029L2.28 19.280153C2.0522683 19.419603 1.7914381 19.495733 1.5244482 19.500677C1.2574581 19.505621 0.99398875 19.439201 0.76125026 19.308279C0.53072804 19.17939 0.33869648 18.991425 0.2049036 18.763714C0.071110725 18.536001 0.00038517921 18.276762 0 18.012655L0 1.4882804C0.00038517921 1.2241726 0.071110725 0.96493363 0.2049036 0.73722214C0.33869648 0.50951064 0.53072804 0.32154521 0.76125026 0.19265544C0.99398875 0.061732188 1.2574581 -0.0046870597 1.5244482 0.00025719975C1.7914381 0.0052014589 2.0522683 0.081330068 2.28 0.22078055L15.787499 8.4839048C16.005453 8.6155977 16.185619 8.8014536 16.310472 9.0233974C16.435326 9.2453403 16.500618 9.4958172 16.5 9.7504673Z"/>
</svg>
